#!OML:ASF H:\MichaelJackson\Top Level 1\Subject 1\Session 1\male.ASF
:FULLY-SPECIFIED
:DEGREES
936
root 5.3933 16.6715 5.62981 7.46707 6.14525 7.69046
lowerback 1.24143 2.80928 -6.84151
upperback 3.34162 3.84894 -3.05652
thorax 2.52683 1.79712 0.694898
lowerneck -8.50898 -5.01133 0.99296
upperneck 37.4359 -7.8212 0.948275
head 14.2457 -3.03249 -0.871657
rclavicle -3.3197e-014 6.29153e-014
rhumerus -23.9819 34.2468 -88.5233
rradius 135.618
rwrist -9.86272
rhand -46.8712 -59.5756
rfingers 7.12502
rthumb -19.5834 631.391
lclavicle -3.3197e-014 6.29153e-014
lhumerus -56.7566 -9.97394 91.4014
lradius 49.7369
lwrist 9.05315
lhand -6.76042 9.60187
lfingers 7.12502
lthumb 19.1012 38.6839
rfemur -47.0731 -9.24642 13.2823
rtibia 72.4145
rfoot 9.20671 7.03847
rtoes 19.8987
lfemur -18.0675 2.52162 -31.2681
ltibia 35.9838
lfoot -21.3236 -13.848
ltoes 37.5878
937
root 5.39502 16.6743 5.65379 7.6484 6.19212 7.65252
lowerback 1.18977 2.81559 -6.74083
upperback 3.29319 3.85848 -3.04636
thorax 2.50993 1.80549 0.651575
lowerneck -8.5177 -5.03652 0.99722
upperneck 37.3015 -7.83949 0.913207
head 14.1818 -3.04827 -0.886683
rclavicle 2.92835e-014 -5.46658e-016
rhumerus -23.9236 34.2044 -88.3657
rradius 135.654
rwrist -9.74445
rhand -46.9007 -59.5179
rfingers 7.12502
rthumb -19.6119 631.451
lclavicle 2.92835e-014 -5.46658e-016
lhumerus -56.7709 -9.94644 91.6987
lradius 49.6967
lwrist 9.05372
lhand -6.06262 9.54161
lfingers 7.12502
lthumb 19.7722 38.556
rfemur -47.1022 -9.22423 13.1908
rtibia 72.3325
rfoot 9.11011 7.48499
rtoes 19.2616
lfemur -18.151 2.17961 -31.2401
ltibia 35.9759
lfoot -21.4806 -13.3941
ltoes 37.1489
938
root 5.39514 16.6773 5.6776 7.79113 6.24915 7.60316
lowerback 1.17612 2.82357 -6.65452
upperback 3.26358 3.86759 -3.02541
thorax 2.48973 1.8129 0.625661
lowerneck -8.53063 -5.0663 1.01492
upperneck 37.1463 -7.87405 0.897003
head 14.1101 -3.06745 -0.898431
rclavicle -3.26939e-014 3.6477e-014
rhumerus -23.8316 34.0849 -88.2061
rradius 135.701
rwrist -9.66962
rhand -46.9255 -59.4727
rfingers 7.12502
rthumb -19.6357 631.499
lclavicle -3.26939e-014 3.6477e-014
lhumerus -56.7823 -9.95738 92.02
lradius 49.6609
lwrist 9.04741
lhand -5.369 9.52078
lfingers 7.12502
lthumb 20.4388 38.4651
rfemur -47.1008 -9.1906 13.0792
rtibia 72.2502
rfoot 9.07348 8.05508
rtoes 18.9007
lfemur -18.1977 1.89959 -31.1893
ltibia 35.9646
lfoot -21.6052 -13.0185
ltoes 36.7716
939
root 5.39375 16.6803 5.70183 7.89593 6.32158 7.54308
lowerback 1.18996 2.83211 -6.57744
upperback 3.25297 3.87598 -2.99784
thorax 2.47292 1.81923 0.610648
lowerneck -8.54348 -5.10031 1.05033
upperneck 36.9778 -7.92471 0.898116
head 14.0328 -3.08945 -0.908229
rclavicle -3.06253e-015 -3.57812e-015
rhumerus -23.7186 33.8942 -88.0579
rradius 135.76
rwrist -9.64542
rhand -46.9392 -59.4651
rfingers 7.12502
rthumb -19.6488 631.508
lclavicle -3.06253e-015 -3.57812e-015
lhumerus -56.7958 -10.0214 92.3631
lradius 49.6409
lwrist 9.0551
lhand -4.71024 9.51335
lfingers 7.12502
lthumb 21.0718 38.3884
rfemur -47.048 -9.15053 12.9528
rtibia 72.1621
rfoot 9.03427 8.72243
rtoes 18.7917
lfemur -18.2069 1.66454 -31.1174
ltibia 35.9563
lfoot -21.7108 -12.7049
ltoes 36.4526
940
root 5.39084 16.6828 5.727 7.96961 6.41514 7.47546
lowerback 1.21741 2.83735 -6.50903
upperback 3.25963 3.87985 -2.96662
thorax 2.46595 1.82251 0.603864
lowerneck -8.55865 -5.13625 1.10081
upperneck 36.8092 -7.98788 0.916162
head 13.9569 -3.11271 -0.915643
rclavicle -2.48357e-014 1.24489e-014
rhumerus -23.5921 33.6501 -87.9307
rradius 135.823
rwrist -9.6626
rhand -46.9409 -59.4961
rfingers 7.12502
rthumb -19.6504 631.477
lclavicle -2.48357e-014 1.24489e-014
lhumerus -56.805 -10.1412 92.7217
lradius 49.6256
lwrist 9.08409
lhand -4.10709 9.51926
lfingers 7.12502
lthumb 21.6511 38.3287
rfemur -46.93 -9.11016 12.8163
rtibia 72.0628
rfoot 8.92925 9.46156
rtoes 18.8308
lfemur -18.1848 1.45386 -31.0286
ltibia 35.9574
lfoot -21.8126 -12.4301
ltoes 36.1622
941
root 5.38661 16.6843 5.75358 8.02508 6.53218 7.40684
lowerback 1.24371 2.83617 -6.45131
upperback 3.27638 3.87607 -2.93587
thorax 2.46997 1.82128 0.602809
lowerneck -8.57471 -5.17103 1.16543
upperneck 36.6521 -8.05797 0.94791
head 13.8871 -3.13502 -0.921235
rclavicle -1.66669e-014 3.34207e-014
rhumerus -23.4633 33.3705 -87.8325
rradius 135.882
rwrist -9.7018
rhand -46.9303 -59.5597
rfingers 7.12502
rthumb -19.6403 631.412
lclavicle -1.66669e-014 3.34207e-014
lhumerus -56.8137 -10.3144 93.0893
lradius 49.6125
lwrist 9.12198
lhand -3.55813 9.53707
lfingers 7.12502
lthumb 22.1782 38.2848
rfemur -46.7445 -9.07402 12.6701
rtibia 71.946
rfoot 8.70962 10.2556
rtoes 19.0301
lfemur -18.1441 1.24164 -30.9322
ltibia 35.975
lfoot -21.9244 -12.1617
ltoes 35.8705
942
root 5.38108 16.6846 5.78178 8.07694 6.67426 7.3456
lowerback 1.25627 2.8261 -6.41136
upperback 3.2958 3.86208 -2.90818
thorax 2.48425 1.81426 0.609205
lowerneck -8.58956 -5.20454 1.24081
upperneck 36.5125 -8.13163 0.986158
head 13.8252 -3.15618 -0.926874
rclavicle -5.66226e-015 3.10601e-016
rhumerus -23.3388 33.0799 -87.7623
rradius 135.93
rwrist -9.73844
rhand -46.9145 -59.6536
rfingers 7.12502
rthumb -19.6251 631.317
lclavicle -5.66226e-015 3.10601e-016
lhumerus -56.8187 -10.5307 93.4559
lradius 49.5898
lwrist 9.14109
lhand -3.06272 9.56739
lfingers 7.12502
lthumb 22.6538 38.2579
rfemur -46.4946 -9.04436 12.5119
rtibia 71.8057
rfoot 8.31818 11.1061
rtoes 19.2949
lfemur -18.1026 1.0087 -30.8383
ltibia 36.016
lfoot -22.0489 -11.8818
ltoes 35.5679
943
root 5.37442 16.6833 5.81173 8.13169 6.84157 7.29473
lowerback 1.25116 2.80526 -6.39135
upperback 3.31317 3.8354 -2.88324
thorax 2.50609 1.80029 0.624624
lowerneck -8.60772 -5.23507 1.31894
upperneck 36.3996 -8.20462 1.02939
head 13.7769 -3.1752 -0.931572
rclavicle -5.6079e-014 -8.79622e-015
rhumerus -23.2266 32.8002 -87.7166
rradius 135.967
rwrist -9.75365
rhand -46.8991 -59.7527
rfingers 7.12502
rthumb -19.6103 631.216
lclavicle -5.6079e-014 -8.79622e-015
lhumerus -56.813 -10.7735 93.8089
lradius 49.5426
lwrist 9.10975
lhand -2.61999 9.58619
lfingers 7.12502
lthumb 23.0786 38.2241
rfemur -46.1773 -9.01879 12.3421
rtibia 71.6346
rfoot 7.71579 12.0096
rtoes 19.502
lfemur -18.0696 0.741255 -30.7507
ltibia 36.0885
lfoot -22.1917 -11.5784
ltoes 35.2427
944
root 5.36662 16.68 5.84355 8.19328 7.02862 7.25636
lowerback 1.22727 2.77621 -6.39242
upperback 3.32358 3.79928 -2.86292
thorax 2.5309 1.78117 0.647681
lowerneck -8.62084 -5.26441 1.39552
upperneck 36.3058 -8.27816 1.07844
head 13.7367 -3.19345 -0.933979
rclavicle -2.60936e-014 -1.67725e-015
rhumerus -23.131 32.544 -87.6914
rradius 135.989
rwrist -9.73317
rhand -46.8899 -59.832
rfingers 7.12502
rthumb -19.6014 631.136
lclavicle -2.60936e-014 -1.67725e-015
lhumerus -56.7989 -11.0281 94.1334
lradius 49.4683
lwrist 9.00627
lhand -2.22891 9.5686
lfingers 7.12502
lthumb 23.4538 38.1591
rfemur -45.7889 -8.98519 12.16
rtibia 71.4226
rfoot 6.88499 12.9399
rtoes 19.5706
lfemur -18.0521 0.444773 -30.671
ltibia 36.1972
lfoot -22.351 -11.2596
ltoes 34.9094
945
root 5.35788 16.6745 5.87696 8.26479 7.22681 7.22724
lowerback 1.18897 2.74179 -6.40905
upperback 3.32269 3.75679 -2.84739
thorax 2.55191 1.75882 0.674784
lowerneck -8.63352 -5.29365 1.46598
upperneck 36.2306 -8.35161 1.12926
head 13.7054 -3.2117 -0.934994
rclavicle -1.52723e-014 1.67103e-014
rhumerus -23.0554 32.326 -87.6795
rradius 135.999
rwrist -9.67662
rhand -46.8918 -59.8793
rfingers 7.12502
rthumb -19.6032 631.089
lclavicle -1.52723e-014 1.67103e-014
lhumerus -56.7718 -11.2692 94.4076
lradius 49.3627
lwrist 8.80888
lhand -1.85941 9.50608
lfingers 7.12502
lthumb 23.8082 38.0508
rfemur -45.3309 -8.9288 11.9687
rtibia 71.159
rfoot 5.83402 13.8627
rtoes 19.4772
lfemur -18.0581 0.13106 -30.5963
ltibia 36.3449
lfoot -22.525 -10.9373
ltoes 34.5807
946
root 5.3482 16.6669 5.91201 8.33818 7.42505 7.20401
lowerback 1.14396 2.70688 -6.43813
upperback 3.31131 3.71376 -2.83638
thorax 2.56547 1.7363 0.704113
lowerneck -8.64074 -5.32387 1.53072
upperneck 36.1605 -8.42483 1.17918
head 13.6756 -3.23074 -0.935257
rclavicle 3.90985e-014 1.75179e-014
rhumerus -23.0062 32.1462 -87.6778
rradius 136.006
rwrist -9.58982
rhand -46.9014 -59.8875
rfingers 7.12502
rthumb -19.6125 631.082
lclavicle 3.90985e-014 1.75179e-014
lhumerus -56.7357 -11.4874 94.6213
lradius 49.2386
lwrist 8.53388
lhand -1.4982 9.4272
lfingers 7.12502
lthumb 24.1546 37.9264
rfemur -44.7957 -8.83478 11.7742
rtibia 70.831
rfoot 4.57415 14.7516
rtoes 19.1533
lfemur -18.0787 -0.170807 -30.5223
ltibia 36.5294
lfoot -22.7145 -10.6358
ltoes 34.267
947
root 5.33763 16.6576 5.94854 8.41098 7.61115 7.18643
lowerback 1.09307 2.67927 -6.47774
upperback 3.2923 3.68072 -2.83206
thorax 2.57378 1.71885 0.732422
lowerneck -8.6464 -5.35874 1.59217
upperneck 36.087 -8.50282 1.22657
head 13.6439 -3.25286 -0.936485
rclavicle -9.42364e-015 -1.3244e-014
rhumerus -22.9803 31.9982 -87.6765
rradius 136.015
rwrist -9.48193
rhand -46.9162 -59.8569
rfingers 7.12502
rthumb -19.6267 631.114
lclavicle -9.42364e-015 -1.3244e-014
lhumerus -56.6959 -11.689 94.7711
lradius 49.1146
lwrist 8.2281
lhand -1.16864 9.34896
lfingers 7.12502
lthumb 24.4706 37.8058
rfemur -44.186 -8.69062 11.5807
rtibia 70.4285
rfoot 3.14728 15.571
rtoes 18.6648
lfemur -18.1102 -0.432332 -30.4491
ltibia 36.7454
lfoot -22.9182 -10.3786
ltoes 33.9893
948
root 5.32617 16.6467 5.98657 8.48067 7.77488 7.17118
lowerback 1.04033 2.66308 -6.52379
upperback 3.26517 3.66276 -2.83523
thorax 2.57398 1.70921 0.756443
lowerneck -8.65288 -5.39918 1.65056
upperneck 36.004 -8.58605 1.26942
head 13.6081 -3.27871 -0.939536
rclavicle 2.06239e-014 9.86469e-015
rhumerus -22.9788 31.8763 -87.6745
rradius 136.034
rwrist -9.37076
rhand -46.9333 -59.8022
rfingers 7.12502
rthumb -19.6432 631.17
lclavicle 2.06239e-014 9.86469e-015
lhumerus -56.6628 -11.8724 94.8557
lradius 49.0079
lwrist 7.94666
lhand -0.890144 9.28293
lfingers 7.12502
lthumb 24.7375 37.7034
rfemur -43.5076 -8.49137 11.3998
rtibia 69.9458
rfoot 1.59013 16.2872
rtoes 18.0496
lfemur -18.1474 -0.6207 -30.3733
ltibia 36.9847
lfoot -23.1358 -10.1905
ltoes 33.749
